HIERARCHY
ROOT hip
{
	OFFSET 0.000000 0.000000 0.000000 
	CHANNELS 6 Xposition Yposition Zposition Xrotation Zrotation Yrotation
	JOINT abdomen
	{
		OFFSET 0.000000 3.402643 0.000000 
		CHANNELS 3 Xrotation Zrotation Yrotation
		JOINT chest
		{
			OFFSET 0.000000 8.438565 -0.680529 
			CHANNELS 3 Xrotation Zrotation Yrotation
			JOINT neck
			{
				OFFSET 0.000000 10.207942 -0.272212 
				CHANNELS 3 Xrotation Zrotation Yrotation
				JOINT head
				{
					OFFSET 0.000000 3.130431 0.000000 
					CHANNELS 3 Xrotation Zrotation Yrotation
					End Site
					{
						OFFSET 0.000000 3.130435 0.000000 
					}
				}
			}
			JOINT lCollar
			{
				OFFSET 3.470700 6.669187 -0.816635 
				CHANNELS 3 Yrotation Zrotation Xrotation
				JOINT lShldr
				{
					OFFSET 3.198488 0.000000 0.000000 
					CHANNELS 3 Zrotation Yrotation Xrotation
					JOINT lForeArm
					{
						OFFSET 10.139888 0.000000 0.000000 
						CHANNELS 3 Yrotation Zrotation Xrotation
						JOINT lHand
						{
							OFFSET 8.370511 0.000000 0.000000 
							CHANNELS 3 Zrotation Yrotation Xrotation
							End Site
							{
								OFFSET 4.083176 0.000000 0.000000 
							}
						}
					}
				}
			}
			JOINT rCollar
			{
				OFFSET -3.470700 6.669187 -0.816635 
				CHANNELS 3 Yrotation Zrotation Xrotation
				JOINT rShldr
				{
					OFFSET -3.198488 0.000000 0.000000 
					CHANNELS 3 Zrotation Yrotation Xrotation
					JOINT rForeArm
					{
						OFFSET -10.139888 0.000000 0.000000 
						CHANNELS 3 Yrotation Zrotation Xrotation
						JOINT rHand
						{
							OFFSET -8.370511 0.000000 0.000000 
							CHANNELS 3 Zrotation Yrotation Xrotation
							End Site
							{
								OFFSET -4.083176 0.000000 0.000000 
							}
						}
					}
				}
			}
		}
	}
	JOINT lThigh
	{
		OFFSET 5.308129 -1.633274 1.361059 
		CHANNELS 3 Xrotation Zrotation Yrotation
		JOINT lShin
		{
			OFFSET -2.041588 -20.007561 0.000000 
			CHANNELS 3 Xrotation Zrotation Yrotation
			JOINT lFoot
			{
				OFFSET 0.000000 -19.190928 -1.224953 
				CHANNELS 3 Xrotation Yrotation Zrotation
				End Site
				{
					OFFSET 0.000000 -2.449906 4.627600 
				}
			}
		}
	}
	JOINT rThigh
	{
		OFFSET -5.308129 -1.633274 1.361059 
		CHANNELS 3 Xrotation Zrotation Yrotation
		JOINT rShin
		{
			OFFSET 2.041588 -20.007561 0.000000 
			CHANNELS 3 Xrotation Zrotation Yrotation
			JOINT rFoot
			{
				OFFSET 0.000000 -19.190928 -1.224953 
				CHANNELS 3 Xrotation Yrotation Zrotation
				End Site
				{
					OFFSET 0.000000 -2.449906 4.627600 
				}
			}
		}
	}
}
MOTION
Frames: 16
Frame Time: 0.033333
-3.085186 31.818621 -3.085186 2.226572 -5.586982 -13.395835 17.988279 0.000000 -0.019531 31.985895 -23.591316 29.345743 -8.544920 -0.009766 -0.009767 36.867245 -13.098335 21.099741 1.992188 -2.001953 0.000341 -78.226723 -7.013099 5.473180 -56.737831 -0.550114 8.640310 -11.144627 1.465270 -13.062188 -2.001953 1.992188 0.000000 74.536766 -8.526970 -9.330350 78.390038 0.493172 8.868546 2.080499 -18.790268 15.080258 -83.806503 30.575558 -5.125241 76.477646 1.515447 -4.186113 2.597171 -13.869659 -5.503896 -8.837700 -17.986990 -16.123940 79.751869 -1.806250 4.149163 -25.806526 -12.589865 24.867601 
-3.098604 30.098593 -3.098604 3.326762 -6.354640 -13.483193 19.189453 0.000000 -0.019531 32.097511 -23.668007 29.322569 -8.544920 -0.009766 -0.009767 35.917980 -13.360787 21.143225 1.992188 -2.001953 0.000341 -78.670547 -10.805327 5.392297 -52.273674 -0.573893 8.598605 -7.316306 4.130619 -16.002459 -2.001953 1.992188 0.000000 74.734024 -7.943243 -9.691562 78.551582 0.495992 8.869267 2.650797 -17.515551 14.955618 -92.023613 30.183561 -9.016586 83.161743 2.002887 -4.232608 1.783389 -14.399949 -5.323449 -9.267304 -18.728395 -15.759976 84.157425 -2.099808 4.164296 -24.824348 -9.733131 26.847361 
-3.105314 28.315943 -3.105314 4.349765 -7.044100 -13.630933 20.341797 0.000000 -0.019531 32.182278 -23.699999 29.296400 -8.544920 -0.009766 -0.009767 35.054108 -13.656873 21.222410 1.992188 -2.001953 0.000341 -79.119408 -15.129639 5.340414 -46.735325 -0.601860 8.543654 -3.583202 6.886549 -18.722805 -2.001953 1.992188 0.000000 74.907211 -7.369517 -10.003905 78.688332 0.487411 8.866817 3.235759 -16.207684 14.864288 -100.046852 29.345491 -12.734528 88.884438 2.372886 -4.226809 1.944310 -14.974985 -5.053516 -8.778397 -19.526018 -15.235246 87.518929 -2.373099 4.154652 -24.283445 -6.398032 28.515181 
-3.112016 26.533369 -3.112016 5.367938 -7.732390 -13.790366 21.503906 0.000000 -0.019531 32.276833 -23.731997 29.270226 -8.544920 -0.009766 -0.009767 34.183319 -13.960872 21.311668 1.992188 -2.001953 0.000341 -79.572411 -19.459393 5.322727 -41.206406 -0.636678 8.492082 0.042306 9.812145 -21.287418 -2.001953 1.992188 0.000000 75.079117 -6.787245 -10.324942 78.824669 0.498073 8.866910 3.802542 -14.896028 14.794600 -107.896729 28.066177 -16.201736 94.607948 2.782222 -4.164930 2.107736 -15.567474 -4.791627 -8.270967 -20.335728 -14.689734 90.873909 -2.587689 4.119891 -23.845938 -3.056797 30.138834 
-3.098595 24.902857 -3.098595 6.146805 -8.237937 -13.995750 22.480469 0.000000 -0.019531 32.349304 -23.704353 29.232281 -8.544920 -0.009766 -0.009767 33.495827 -14.291811 21.406355 1.992188 -2.001953 0.000341 -80.056747 -24.275444 5.358966 -34.346596 -0.685717 8.444563 3.423518 12.576721 -23.508984 -2.001953 1.992188 0.000000 75.205307 -6.292490 -10.565467 78.927391 0.496140 8.868970 4.334307 -13.668980 14.757152 -114.863235 26.562197 -19.134100 99.250015 3.118447 -4.100833 3.006985 -16.132875 -4.537303 -7.128215 -21.144432 -13.953820 93.251579 -2.763702 4.127450 -23.837526 0.127327 31.459759 
-3.085160 23.272465 -3.085160 6.926937 -8.733054 -14.202251 23.466797 0.000000 -0.019531 32.422112 -23.683071 29.203058 -8.544920 -0.009766 -0.009767 32.804668 -14.621418 21.508776 1.992188 -2.001953 0.000341 -80.556610 -29.101427 5.426541 -27.478022 -0.730949 8.395523 6.722368 15.461039 -25.585167 -2.001953 1.992188 0.000000 75.339745 -5.794979 -10.803974 79.029892 0.494268 8.870361 4.860611 -12.441360 14.734048 -121.649780 24.756126 -21.839346 103.884377 3.427817 -4.026772 3.937402 -16.684902 -4.263895 -6.015427 -21.954731 -13.209302 95.630913 -2.929499 4.104090 -23.903349 3.324002 32.771137 
-3.044903 21.908068 -3.044903 7.321386 -8.931646 -14.456822 24.150391 0.000000 -0.019531 32.464149 -23.567970 29.154301 -8.544920 -0.009766 -0.009767 32.382816 -14.966766 21.635666 1.992188 -2.001953 0.000341 -81.412651 -37.030388 5.787241 -14.259164 -0.848685 8.329159 9.651451 17.929316 -27.305716 -2.001953 1.992188 0.000000 75.388458 -5.433495 -10.920930 79.096085 0.489439 8.872866 5.298069 -11.411576 14.712297 -126.951813 23.076385 -23.729662 107.251686 3.671490 -3.937180 5.313905 -17.085602 -4.098093 -4.736554 -22.688751 -12.258917 97.298561 -3.059836 4.071693 -24.358631 5.840324 33.929615 
-3.004634 20.544062 -3.004634 7.706334 -9.130013 -14.703447 24.843750 0.000000 -0.019531 32.492062 -23.450668 29.114408 -8.544920 -0.009766 -0.009767 31.960457 -15.301451 21.775290 1.992188 -2.001953 0.000341 -82.450325 -44.936218 6.347554 -1.041519 -0.980538 8.280836 12.549548 20.470787 -28.912764 -2.001953 1.992188 0.000000 75.436516 -5.071839 -11.037333 79.160690 0.494287 8.875051 5.733753 -10.380397 14.691158 -132.104477 21.240580 -25.428135 110.620079 3.905164 -3.845019 6.690800 -17.510927 -3.952310 -3.467017 -23.442617 -11.325936 98.967499 -3.167306 4.029347 -24.857868 8.358043 35.111137 
-2.942007 19.953581 -2.942007 7.784702 -9.071774 -14.968199 25.244141 0.000000 -0.019531 32.498215 -23.312277 29.181561 -8.544920 -0.009766 -0.009767 31.767776 -15.523985 21.838665 1.992188 -2.001953 0.000341 -82.582031 -46.321568 6.384261 0.687476 -0.995439 8.272478 14.039059 19.110863 -29.022532 -2.001953 1.992188 0.000000 75.463280 -4.779963 -11.134481 79.181732 0.496414 8.870038 6.051158 -9.644526 14.693902 -134.138947 20.439432 -26.171144 111.910469 3.989444 -3.775985 7.382534 -17.664263 -4.093529 -2.657106 -23.809748 -10.617723 99.493370 -3.215984 4.033527 -24.677155 9.851666 35.749752 
-2.879374 19.363459 -2.879374 7.861525 -9.003624 -15.242590 25.654297 0.000000 -0.019531 32.489727 -23.182526 29.248857 -8.544920 -0.009766 -0.009767 31.578344 -15.737286 21.904987 1.992188 -2.001953 0.000341 -82.717110 -47.695553 6.410164 2.416498 -1.010607 8.266475 15.519245 17.752079 -29.164860 -2.001953 1.992188 0.000000 75.479828 -4.499366 -11.228163 79.202782 0.488944 8.863173 6.367121 -8.908564 14.701927 -136.159653 19.619375 -26.886091 113.229080 4.062254 -3.747538 8.063293 -17.827206 -4.172674 -1.856512 -24.192514 -9.923195 100.030052 -3.255144 4.019391 -24.512400 11.373748 36.406822 
-2.807797 19.461874 -2.807797 7.840802 -8.897353 -15.523600 25.917969 0.000000 -0.019531 32.466335 -23.082989 29.473564 -8.544920 -0.009766 -0.009767 31.432524 -15.734567 21.843626 1.992188 -2.001953 0.000341 -82.711754 -47.952816 6.468853 2.406835 -1.012011 8.266533 15.803620 15.703904 -28.747932 -2.001953 1.992188 0.000000 75.605492 -4.413765 -11.425299 79.229767 0.490846 8.865333 6.597153 -8.330175 14.896630 -135.785538 19.727310 -26.972980 113.111099 4.062209 -3.765708 7.788187 -17.806183 -4.445322 -1.738841 -24.271336 -9.577790 99.806366 -3.235754 4.008270 -23.485403 12.334513 36.638863 
-2.736219 19.560211 -2.736219 7.830354 -8.790704 -15.815819 26.181641 0.000000 -0.019531 32.428589 -22.991804 29.702091 -8.544920 -0.009766 -0.009767 31.279661 -15.732873 21.770266 1.992188 -2.001953 0.000341 -82.706200 -48.210022 6.534873 2.407007 -1.011601 8.276287 16.071218 13.646475 -28.339422 -2.001953 1.992188 0.000000 75.731270 -4.317896 -11.623770 79.256729 0.492755 8.867519 6.842298 -7.746555 15.094971 -135.410309 19.835445 -27.049953 112.993721 4.071167 -3.761381 7.503405 -17.765099 -4.713698 -1.641682 -24.349045 -9.209745 99.581688 -3.225900 4.014656 -22.448942 13.281137 36.875435 
-2.662409 19.517714 -2.662409 7.763367 -8.627803 -16.105135 26.308594 0.000000 -0.019531 32.383846 -22.902515 29.960741 -8.544920 -0.009766 -0.009767 31.135864 -15.606192 21.665043 1.992188 -2.001953 0.000341 -82.734314 -48.201950 6.481332 2.406835 -1.012011 8.266533 16.473400 13.318284 -28.206549 -2.001953 1.992188 0.000000 75.884743 -4.437854 -11.829288 79.276169 0.493496 8.875775 7.046732 -7.254975 15.493365 -135.331726 19.825836 -27.203911 113.081818 4.075999 -3.754784 7.410163 -17.741302 -4.987725 -1.807159 -24.462936 -8.664564 99.776375 -3.237182 4.024974 -22.147236 13.859899 37.450878 
-2.588599 19.475109 -2.588599 7.693327 -8.465540 -16.384926 26.425779 0.000000 -0.019531 32.331306 -22.802364 30.231926 -8.544920 -0.009766 -0.009767 30.988216 -15.471226 21.547955 1.992188 -2.001953 0.000341 -82.778366 -48.183121 6.450442 2.416498 -1.010607 8.266475 16.881790 12.992939 -28.075089 -2.001953 1.992188 0.000000 76.037682 -4.554420 -12.026072 79.294128 0.494294 8.882181 7.248098 -6.763829 15.894676 -135.252884 19.804705 -27.375216 113.179420 4.071874 -3.761552 7.314254 -17.714600 -5.270701 -1.963346 -24.567942 -8.109941 99.971458 -3.255285 4.017977 -21.846819 14.456988 38.043606 
-2.517028 19.240255 -2.517028 7.585382 -8.275017 -16.673077 26.406248 0.000000 -0.019531 32.279690 -22.647762 30.377537 -8.544920 -0.009766 -0.009767 30.813248 -15.284507 21.487209 1.992188 -2.001953 0.000341 -82.758804 -47.863735 6.189003 2.416498 -1.010607 8.266475 17.337276 12.864370 -27.898167 -2.001953 1.992188 0.000000 76.068817 -4.621639 -12.080598 79.264183 0.492484 8.876533 7.357713 -6.462999 16.306717 -135.753418 19.542427 -27.676336 113.658730 4.101265 -3.730865 7.493762 -17.761724 -5.547944 -2.354203 -24.764957 -7.275361 100.663994 -3.284589 4.027914 -22.415850 14.677817 38.950108 
-2.445451 19.005424 -2.445451 7.482455 -8.075477 -16.961395 26.376953 0.000000 -0.019531 32.230247 -22.482801 30.532148 -8.544920 -0.009766 -0.009767 30.650255 -15.098640 21.417322 1.992188 -2.001953 0.000341 -82.753883 -47.543816 5.944814 2.416498 -1.010607 8.266475 17.795856 12.725621 -27.727642 -2.001953 1.992188 0.000000 76.099945 -4.688802 -12.135197 79.226700 0.499102 8.878828 7.472742 -6.162763 16.709061 -136.241837 19.268831 -27.973902 114.128510 4.149422 -3.681009 7.649096 -17.823977 -5.814743 -2.744554 -24.948597 -6.428615 101.357193 -3.343089 3.992811 -23.008339 14.903655 39.916130 
